# xmcd
#
# Track frame offsets:
#	150
#	19574
#	39098
#	59997
#	82620
#	97294
#	124965
#	145464
#	160013
#	170437
#	188236
#	201285
#	219760
#	236709
#	253520
#	276707
#	299240
#
# Disc length: 4247 seconds
#
# Revision: 5
# Processed by: cddbd v1.4PL0 Copyright (c) Steve Scherf et al.
# Submitted via: audiograbber 1.81.03
#
DISCID=06109511
DTITLE=Variuos Artists -  ROMANTIC COLLECTION - GOLDEN [CD1)
DYEAR=1900
DGENRE=
TTITLE0=Stevie Wonder - I Just Called To Say "I Love You"
TTITLE1=Bryan Ferry - Don't Stop The Dance
TTITLE2=Sting - Shape Of My Heart
TTITLE3=Elton John - Blessed
TTITLE4=Blonker - Sidewalk Cafe
TTITLE5=Scorpions - Still Loving You
TTITLE6=The Rolling Stones - Angie
TTITLE7=Deep Purple - Soldier Of Fortune
TTITLE8=Space - Ballad For Space Lowers
TTITLE9=Nick Cave And The Bad Sees - Where The Wild Roses Grow
TTITLE10=Tanita Ticaram - Cathedral Song
TTITLE11=W.A.S.P. - Keep Holding On
TTITLE12=Francis Goya - Classical Dream
TTITLE13=Chris Norman - Some Hearts Are Diamonds
TTITLE14=Madonna - This Used To Be My Playground
TTITLE15=George Michael - Careless Whisper
TTITLE16=London Symphony Orchestra - I Just Called To Say "I Love You"
EXTD=
EXTT0=
EXTT1=
EXTT2=
EXTT3=
EXTT4=
EXTT5=
EXTT6=
EXTT7=
EXTT8=
EXTT9=
EXTT10=
EXTT11=
EXTT12=
EXTT13=
EXTT14=
EXTT15=
EXTT16=
PLAYORDER=
